<svg xmlns="http://www.w3.org/2000/svg" width="198" height="25" viewBox="0 0 198 25" fill="none">
  <path fill-rule="evenodd" clip-rule="evenodd" d="M71.2215 2.23047C71.0196 2.23423 70.8272 2.31495 70.6858 2.4553C70.5444 2.59565 70.4652 2.78439 70.4652 2.98098V17.2469C70.4652 17.446 70.5465 17.6369 70.691 17.7777C70.8356 17.9184 71.0318 17.9974 71.2362 17.9974C71.4407 17.9974 71.6369 17.9184 71.7815 17.7777C71.926 17.6369 72.0072 17.446 72.0072 17.2469V2.98098C72.0073 2.8813 71.9868 2.7826 71.9473 2.69067C71.9077 2.59872 71.8497 2.51539 71.7766 2.44552C71.7036 2.37565 71.6169 2.32065 71.5218 2.28373C71.4267 2.2468 71.3249 2.22869 71.2225 2.23047H71.2215ZM82.8878 6.50383C82.7871 6.50666 82.688 6.5286 82.596 6.56843L75.9792 9.44334C75.8438 9.50288 75.729 9.59915 75.6484 9.72064C75.5679 9.84212 75.525 9.98365 75.525 10.1282C75.525 10.2728 75.5679 10.4144 75.6484 10.5358C75.729 10.6573 75.8438 10.7536 75.9792 10.8131L82.596 13.6972C82.6954 13.7408 82.803 13.7636 82.9119 13.7639C83.0883 13.7634 83.259 13.704 83.3958 13.5959C83.5327 13.4876 83.6272 13.337 83.6637 13.1692C83.7004 13.0013 83.6768 12.8263 83.5969 12.6734C83.517 12.5204 83.3857 12.3987 83.2248 12.3285L78.1837 10.1293L83.2248 7.93821C83.4109 7.85664 83.5563 7.70672 83.6294 7.52119C83.7024 7.33564 83.6971 7.12952 83.6146 6.94778C83.552 6.81218 83.4496 6.69766 83.3202 6.61866C83.1909 6.53965 83.0404 6.49969 82.8878 6.50383ZM58.8447 11.7353C58.9521 11.6857 59.0698 11.6611 59.1887 11.6632V11.6642C59.3567 11.6674 59.519 11.7239 59.6509 11.8251C59.7829 11.9264 59.8772 12.0668 59.9197 12.225C60.7267 15.2341 62.5363 17.8976 65.065 19.7982C67.5938 21.6989 70.6988 22.7293 73.8937 22.7281C74.0982 22.7281 74.2943 22.8072 74.4389 22.9479C74.5835 23.0887 74.6647 23.2797 74.6647 23.4786C74.6647 23.6777 74.5835 23.8686 74.4389 24.0094C74.2943 24.1501 74.0982 24.2291 73.8937 24.2291C66.6176 24.2291 60.2567 19.4472 58.4282 12.6013C58.3985 12.4893 58.3957 12.3721 58.4202 12.2589C58.4447 12.1456 58.4958 12.0395 58.5694 11.9486C58.6431 11.8578 58.7373 11.7848 58.8447 11.7353Z" fill="white"/>
  <path d="M198 5.70559C197.121 6.08495 196.176 6.34128 195.182 6.45713C196.207 5.8602 196.974 4.92069 197.34 3.81393C196.377 4.37065 195.323 4.76253 194.224 4.97251C193.485 4.20443 192.506 3.69532 191.439 3.52425C190.373 3.35318 189.278 3.5297 188.325 4.02642C187.372 4.52314 186.614 5.31225 186.168 6.27125C185.723 7.23025 185.616 8.30548 185.863 9.33C183.912 9.23465 182.003 8.74102 180.261 7.88116C178.518 7.02131 176.981 5.81444 175.749 4.33888C175.328 5.04633 175.086 5.86656 175.086 6.74011C175.085 7.52652 175.284 8.30086 175.665 8.99446C176.045 9.68806 176.596 10.2795 177.268 10.7162C176.489 10.6921 175.727 10.4871 175.046 10.1185V10.18C175.045 11.2829 175.437 12.3519 176.155 13.2056C176.872 14.0593 177.871 14.645 178.982 14.8635C178.259 15.0539 177.501 15.0819 176.766 14.9455C177.079 15.8946 177.689 16.7244 178.511 17.3191C179.333 17.9136 180.326 18.2431 181.349 18.2613C179.611 19.5896 177.465 20.3099 175.255 20.3067C174.864 20.3069 174.473 20.2846 174.084 20.2402C176.327 21.644 178.938 22.389 181.604 22.386C190.631 22.386 195.566 15.1085 195.566 8.79685C195.566 8.59179 195.561 8.38469 195.551 8.17962C196.511 7.50393 197.339 6.66721 197.998 5.70867L198 5.70559Z" fill="white"/>
  <path fill-rule="evenodd" clip-rule="evenodd" d="M12.8903 1C5.90692 1 0.250732 6.50583 0.250732 13.3035C0.250732 18.7478 3.8688 23.3463 8.89301 24.9765C9.52499 25.0842 9.76198 24.715 9.76198 24.3921C9.76198 24.0999 9.74618 23.131 9.74618 22.1005C6.5705 22.6696 5.74893 21.347 5.49614 20.6549C5.35394 20.3012 4.73776 19.2092 4.20059 18.917C3.7582 18.6863 3.12623 18.1173 4.18479 18.1019C5.18015 18.0865 5.89112 18.9939 6.12811 19.363C7.26567 21.2239 9.0826 20.701 9.80938 20.3781C9.91997 19.5783 10.2518 19.04 10.6151 18.7325C7.80285 18.4249 4.86416 17.3637 4.86416 12.6576C4.86416 11.3196 5.35394 10.2123 6.15971 9.35102C6.03332 9.04343 5.59093 7.78232 6.28611 6.09058C6.28611 6.09058 7.34467 5.76762 9.76198 7.3517C10.7731 7.07487 11.8475 6.93645 12.9219 6.93645C13.9962 6.93645 15.0706 7.07487 16.0817 7.3517C18.4991 5.75224 19.5576 6.09058 19.5576 6.09058C20.2528 7.78232 19.8104 9.04343 19.684 9.35102C20.4898 10.2123 20.9796 11.3042 20.9796 12.6576C20.9796 17.3791 18.0251 18.4249 15.2128 18.7325C15.671 19.1169 16.0659 19.8552 16.0659 21.0086C16.0659 22.6542 16.0501 23.9768 16.0501 24.3921C16.0501 24.715 16.2871 25.0995 16.9191 24.9765C19.4282 24.1519 21.6085 22.5821 23.1532 20.4882C24.6979 18.3941 25.529 15.8814 25.5298 13.3035C25.5298 6.50583 19.8736 1 12.8903 1Z" fill="white"/>
  <path fill-rule="evenodd" clip-rule="evenodd" d="M122.04 3.3042C120.869 3.3042 119.916 4.23017 119.916 5.36833C119.916 6.50724 120.869 7.4338 122.04 7.4338C123.208 7.4338 124.159 6.50724 124.159 5.36833C124.159 4.23017 123.208 3.3042 122.04 3.3042ZM120.206 8.99817V20.4514H123.866L123.867 8.99817H120.206ZM126.163 8.99717V20.4504L129.814 20.4518L129.816 14.7845C129.816 13.3299 130.076 11.8429 132.007 11.8429C133.908 11.8429 133.908 13.5977 133.908 14.879V20.4504L137.564 20.449V14.1689C137.564 11.3348 137.032 8.71228 133.177 8.71228C131.367 8.71228 130.182 9.70855 129.717 10.5618H129.666L129.666 8.99717H126.163ZM139.385 24H118.373C117.37 24 116.554 23.223 116.554 22.268V1.73068C116.554 0.776376 117.37 0 118.373 0H139.385C140.391 0 141.21 0.776376 141.21 1.73068V22.268C141.21 23.223 140.391 24 139.385 24Z" fill="white"/>
</svg>